<svg width="100" height="100" viewBox="0 0 100 100" fill="none" xmlns="http://www.w3.org/2000/svg"><g id="car-wash 1" clip-path="url(#clip0_835_2)"><g id="Group 56"><path id="Path 52" d="M97.051 39.071H68.026C66.1221 39.0619 64.2666 39.6712 62.7388 40.8074C61.211 41.9435 60.0933 43.545 59.554 45.371L55.549 58.722H53.812C49.9024 58.7265 46.1544 60.2821 43.3907 63.0473C40.627 65.8126 39.0734 69.5614 39.071 73.471V85.264C39.071 86.0458 39.3816 86.7957 39.9344 87.3485C40.4873 87.9014 41.2371 88.212 42.019 88.212H48.939C49.1838 91.4216 50.6317 94.4204 52.9928 96.6082C55.3539 98.796 58.4541 100.012 61.673 100.012C64.8919 100.012 67.9921 98.796 70.3532 96.6082C72.7143 94.4204 74.1621 91.4216 74.407 88.212H97.051C97.8329 88.212 98.5827 87.9014 99.1355 87.3485C99.6884 86.7957 99.999 86.0458 99.999 85.264V42.024C99.9997 41.6364 99.9239 41.2526 99.776 40.8943C99.6282 40.5361 99.4111 40.2105 99.1373 39.9362C98.8635 39.6619 98.5383 39.4443 98.1803 39.2959C97.8223 39.1474 97.4386 39.071 97.051 39.071V39.071ZM94.103 58.725H88.203V44.971H94.103V58.725ZM65.202 47.071C65.3818 46.4623 65.7543 45.9285 66.2636 45.5498C66.7729 45.1711 67.3914 44.968 68.026 44.971H82.311V58.729H61.705L65.202 47.071ZM61.671 94.103C60.3105 94.103 58.9805 93.6995 57.8492 92.9437C56.718 92.1878 55.8363 91.1134 55.3156 89.8565C54.795 88.5995 54.6588 87.2164 54.9242 85.882C55.1896 84.5476 55.8448 83.3219 56.8068 82.3598C57.7689 81.3978 58.9946 80.7426 60.329 80.4772C61.6634 80.2117 63.0465 80.348 64.3035 80.8686C65.5605 81.3893 66.6348 82.271 67.3907 83.4022C68.1466 84.5335 68.55 85.8635 68.55 87.224C68.5479 89.0478 67.8225 90.7962 66.5329 92.0858C65.2432 93.3754 63.4948 94.1009 61.671 94.103V94.103ZM94.101 82.31H73.465C72.4954 79.9816 70.8582 77.9924 68.7598 76.5932C66.6614 75.1939 64.1957 74.4472 61.6735 74.4472C59.1513 74.4472 56.6856 75.1939 54.5872 76.5932C52.4888 77.9924 50.8516 79.9816 49.882 82.31H44.971V73.471C44.9739 71.1263 45.9066 68.8785 47.5646 67.2206C49.2225 65.5626 51.4703 64.6299 53.815 64.627H94.106L94.101 82.31Z" fill="#14A1D5"/><path id="Path 53" d="M81.328 76.418H85.259C86.0414 76.418 86.7917 76.1072 87.345 75.554C87.8982 75.0007 88.209 74.2504 88.209 73.468C88.209 72.6856 87.8982 71.9353 87.345 71.382C86.7917 70.8288 86.0414 70.518 85.259 70.518H81.328C80.5456 70.518 79.7953 70.8288 79.242 71.382C78.6888 71.9353 78.378 72.6856 78.378 73.468C78.378 74.2504 78.6888 75.0007 79.242 75.554C79.7953 76.1072 80.5456 76.418 81.328 76.418V76.418Z" fill="#14A1D5"/></g><g id="Group 58"><g id="Group 57"><path id="translate_x" style="transform-origin: center; transform-box: fill-box; animation: translateX 2s linear infinite alternate;" d="M13.758 58.964H2.948C2.16561 58.964 1.41527 59.2748 0.862036 59.828C0.308804 60.3813 -0.0019989 61.1316 -0.0019989 61.914C-0.0019989 62.6964 0.308804 63.4467 0.862036 64C1.41527 64.5532 2.16561 64.864 2.948 64.864H13.758C17.4068 64.864 20.9063 63.4145 23.4864 60.8344C26.0665 58.2542 27.516 54.7548 27.516 51.106C27.516 47.4572 26.0665 43.9577 23.4864 41.3776C20.9063 38.7975 17.4068 37.348 13.758 37.348C11.6884 37.3247 9.71141 36.4861 8.25613 35.0143C6.80086 33.5426 5.98467 31.5563 5.98467 29.4865C5.98467 27.4167 6.80086 25.4304 8.25613 23.9587C9.71141 22.4869 11.6884 21.6483 13.758 21.625H17.689V22.608C17.689 23.3904 17.9998 24.1407 18.553 24.694C19.1063 25.2472 19.8566 25.558 20.639 25.558C21.4214 25.558 22.1717 25.2472 22.725 24.694C23.2782 24.1407 23.589 23.3904 23.589 22.608V21.625H26.537C27.3194 21.625 28.0697 21.3142 28.623 20.761C29.1762 20.2077 29.487 19.4574 29.487 18.675C29.487 17.8926 29.1762 17.1423 28.623 16.589C28.0697 16.0358 27.3194 15.725 26.537 15.725H23.585V14.742C23.585 13.9596 23.2742 13.2093 22.721 12.656C22.1677 12.1028 21.4174 11.792 20.635 11.792C19.8526 11.792 19.1023 12.1028 18.549 12.656C17.9958 13.2093 17.685 13.9596 17.685 14.742V15.725H13.758C10.1092 15.725 6.60975 17.1745 4.02963 19.7546C1.4495 22.3347 1.09873e-06 25.8342 1.09873e-06 29.483C1.09873e-06 33.1318 1.4495 36.6313 4.02963 39.2114C6.60975 41.7915 10.1092 43.241 13.758 43.241C14.7978 43.2293 15.8297 43.424 16.7938 43.8138C17.7579 44.2036 18.635 44.7808 19.3745 45.512C20.114 46.2431 20.701 47.1137 21.1017 48.0734C21.5024 49.033 21.7087 50.0626 21.7087 51.1025C21.7087 52.1424 21.5024 53.172 21.1017 54.1316C20.701 55.0913 20.114 55.9619 19.3745 56.693C18.635 57.4242 17.7579 58.0014 16.7938 58.3912C15.8297 58.781 14.7978 58.9757 13.758 58.964V58.964Z" fill="#058702"/><g id="clip" style="transform-origin: center; transform-box: fill-box; animation: sideClip 1s linear infinite alternate;"><path id="Ellipse 6" d="M53.9 21C55.5569 21 56.9 19.8807 56.9 18.5C56.9 17.1193 55.5569 16 53.9 16C52.2431 16 50.9 17.1193 50.9 18.5C50.9 19.8807 52.2431 21 53.9 21Z" fill="#058702"/><path id="Ellipse 7" d="M65.9 21C67.5569 21 68.9 19.8807 68.9 18.5C68.9 17.1193 67.5569 16 65.9 16C64.2431 16 62.9 17.1193 62.9 18.5C62.9 19.8807 64.2431 21 65.9 21Z" fill="#058702"/><path id="Ellipse 8" d="M55.9 6C57.5569 6 58.9 4.65685 58.9 3C58.9 1.34315 57.5569 0 55.9 0C54.2431 0 52.9 1.34315 52.9 3C52.9 4.65685 54.2431 6 55.9 6Z" fill="#058702"/><path id="Ellipse 9" d="M55.9 37C57.5569 37 58.9 35.6569 58.9 34C58.9 32.3431 57.5569 31 55.9 31C54.2431 31 52.9 32.3431 52.9 34C52.9 35.6569 54.2431 37 55.9 37Z" fill="#058702"/><path id="Ellipse 10" d="M45.9 30C47.5569 30 48.9 28.6569 48.9 27C48.9 25.3431 47.5569 24 45.9 24C44.2431 24 42.9 25.3431 42.9 27C42.9 28.6569 44.2431 30 45.9 30Z" fill="#058702"/><path id="Ellipse 11" d="M36.4 21C38.333 21 39.9 19.8807 39.9 18.5C39.9 17.1193 38.333 16 36.4 16C34.467 16 32.9 17.1193 32.9 18.5C32.9 19.8807 34.467 21 36.4 21Z" fill="#058702"/><path id="Ellipse 12" d="M45.9 14C47.5569 14 48.9 12.6569 48.9 11C48.9 9.34315 47.5569 8 45.9 8C44.2431 8 42.9 9.34315 42.9 11C42.9 12.6569 44.2431 14 45.9 14Z" fill="#058702"/></g></g></g></g><defs><clipPath id="clip0_835_2"><rect width="100" height="100" fill="white"/></clipPath></defs><style> @keyframes sideClip { 0% { clip-path: polygon(0 0, 0 0, 0 100%, 0% 100%); } 50% { clip-path: polygon(0 0, 52% 0, 51% 100%, 0 100%); } 100% { clip-path: polygon(0 0, 100% 0, 100% 100%, 0 100%); } } @keyframes translateX { 0%, 100% { transform: translateX(0px); } 50% { transform: translateX(4px); } }</style></svg>