<svg id="Layer_2" data-name="Layer 2" xmlns="http://www.w3.org/2000/svg" width="45" height="45" viewBox="0 0 45 45">
  <g id="Color_Icon" data-name="Color Icon">
    <g id="_01._Facebook" data-name="01. Facebook">
      <rect id="Rectangle_55" data-name="Rectangle 55" width="45" height="45" rx="22.5" fill="#4a6ea9"/>
      <path id="Icon" d="M57.943,49.346H55.006c-.461,0-.626-.168-.626-.632V45.129c0-.461.174-.635.629-.635h2.934V41.909a6.468,6.468,0,0,1,.807-3.327,4.878,4.878,0,0,1,2.639-2.192,6.474,6.474,0,0,1,2.26-.39h2.9c.417,0,.591.183.591.591v3.371c0,.423-.177.591-.591.591-.795,0-1.59,0-2.381.033s-1.223.393-1.223,1.22c-.018.886,0,1.755,0,2.659h3.413c.485,0,.65.165.65.653v3.563c0,.482-.154.632-.641.635H62.931v9.614c0,.514-.16.677-.668.677h-3.7c-.446,0-.62-.174-.62-.62Z" transform="translate(-38.312 -25.363)" fill="#fff"/>
    </g>
  </g>
</svg>
