<svg xmlns="http://www.w3.org/2000/svg" xmlns:xlink="http://www.w3.org/1999/xlink" width="46.972" height="35" viewBox="0 0 46.972 35">
  <defs>
    <linearGradient id="linear-gradient" x1="0.5" y1="0.858" x2="0.5" y2="1.31" gradientUnits="objectBoundingBox">
      <stop offset="0" stop-color="#01d7fb"/>
      <stop offset="1" stop-color="#00c7ff" stop-opacity="0"/>
    </linearGradient>
    <linearGradient id="linear-gradient-2" x1="0.634" y1="0.6" x2="0.499" y2="0.499" xlink:href="#linear-gradient"/>
  </defs>
  <g id="icon" transform="translate(-656.447 -1040.031)">
    <g id="Shape_1" data-name="Shape 1" transform="translate(656.447 1040.031)" style="isolation: isolate">
      <path id="Path_5" data-name="Path 5" d="M152.914,168.256a29.359,29.359,0,0,1-7.238-6.2c-3.166-3.877-5.234-3.1-6.268-2.52,0,0,7.657,6.94,11.7,8.336C153.172,168.583,152.914,168.256,152.914,168.256Z" transform="translate(-135.141 -141.645)" fill="#1189ca" fill-rule="evenodd"/>
      <path id="Path_6" data-name="Path 6" d="M162.117,169.155a44.359,44.359,0,0,1-3.813-5.428c-.84-1.745-3.867-1.745-2.224,0S160.566,168.9,162.117,169.155Z" transform="translate(-145.054 -143.704)" fill="#1189ca" fill-rule="evenodd"/>
      <path id="Path_7" data-name="Path 7" d="M174.994,113.96a37.6,37.6,0,0,1-10.856,30.017c-13.311,13.14-29.86-2.964-35.737-10.95,0,0,2.782-1.932,9.114,3.994s18.74,9.791,24.426-1.8c0,0-8.856,7.987-12.505,4.38s-2.357-2.319-2.357-2.319,6.591-1.417,9.305-6.7S164.138,117.31,174.994,113.96Z" transform="translate(-128.401 -113.96)" fill="#00c7ff" fill-rule="evenodd"/>
      <path id="Path_8" data-name="Path 8" d="M166.192,190.748s5.482,3.36,10.892,2.585,9.676-5.04,9.676-5.04-7.923,7.105-20.568,2.455" transform="translate(-151.54 -159.585)" fill-rule="evenodd" fill="url(#linear-gradient)"/>
    </g>
    <path id="Path_25" data-name="Path 25" d="M150.274,139.59s7.077.071,10.179-8.207,8.3-14.232,9.376-14.82,6-2.6,6-2.6,4.545,19.537-17.859,31.176c-7.4,3.844-14.321-2.068-16-2.97s-11.094-9.432-12.2-9.353c0,0,2.574-.862,6.128,2.146s19,15.45,26.882.252C162.779,135.211,153.536,143.454,150.274,139.59Z" transform="translate(527.209 926.071)" fill="#14a1d5" fill-rule="evenodd"/>
    <path id="Path_26" data-name="Path 26" d="M199.129,126.194s-5.366,4.271-8.855,14.449c-2.788,5.183-8.627,5.913-8.627,5.913h-.588s.215,2.229,7.381-.872,11.915-18.9,11.915-18.9Z" transform="translate(495.805 918.58)" fill-rule="evenodd" fill="url(#linear-gradient-2)"/>
    <path id="Path_27" data-name="Path 27" d="M150.274,139.59s7.077.071,10.179-8.207,8.3-14.232,9.376-14.82,6-2.6,6-2.6,4.545,19.537-17.859,31.176c-7.4,3.844-14.321-2.068-16-2.97s-11.094-9.432-12.2-9.353c0,0,2.574-.862,6.128,2.146s19,15.45,26.882.252C162.779,135.211,153.536,143.454,150.274,139.59Z" transform="translate(527.209 926.071)" fill="#14a1d5" fill-rule="evenodd"/>
  </g>
</svg>
