<svg xmlns="http://www.w3.org/2000/svg" width="35" height="35" viewBox="0 0 35 35">
  <g id="instagram" transform="translate(-6 -6)">
    <circle id="Ellipse_2" data-name="Ellipse 2" cx="3.675" cy="3.675" r="3.675" transform="translate(19.825 19.825)" fill="#fff"/>
    <path id="Path_20" data-name="Path 20" d="M23.5,6A17.5,17.5,0,1,0,41,23.5,17.5,17.5,0,0,0,23.5,6ZM34.312,27.948a6.621,6.621,0,0,1-1.764,4.5A6.743,6.743,0,0,1,28,34.2H19a6.741,6.741,0,0,1-4.552-1.745,6.621,6.621,0,0,1-1.764-4.5v-8.9a6.622,6.622,0,0,1,1.764-4.5A6.743,6.743,0,0,1,19,12.8H28a6.741,6.741,0,0,1,4.552,1.745,6.621,6.621,0,0,1,1.764,4.5Z" fill="#fff"/>
    <path id="Path_21" data-name="Path 21" d="M142.865,131.54c-2.19-.06-6.573-.06-8.763,0a4.594,4.594,0,0,0-3.244,1.182,4.651,4.651,0,0,0-1.195,3.209c-.057,2.139,0,8.558,0,8.558a4.673,4.673,0,0,0,1.195,3.209,4.593,4.593,0,0,0,3.244,1.182c2.19.06,6.573.06,8.763,0a4.594,4.594,0,0,0,3.244-1.182,4.651,4.651,0,0,0,1.195-3.209v-8.558a4.651,4.651,0,0,0-1.195-3.209A4.594,4.594,0,0,0,142.865,131.54Zm-4.382,14.367a5.7,5.7,0,1,1,5.7-5.7A5.7,5.7,0,0,1,138.483,145.906Zm5.72-10.217a1.139,1.139,0,1,1,1.14-1.139,1.139,1.139,0,0,1-1.14,1.139Z" transform="translate(-114.983 -116.71)" fill="#fff"/>
  </g>
</svg>
