<svg width="71" height="100" viewBox="0 0 71 100" fill="none" xmlns="http://www.w3.org/2000/svg"><g id="oil-bottle 1" clip-path="url(#clip0_836_17)"><g id="oil-bottle"><path id="rotate" style="transform-origin: center; transform-box: fill-box; animation: rotation 2s linear infinite alternate;" d="M42.751 26.204C41.9624 25.354 41.0134 24.6684 39.9587 24.1868C38.9039 23.7051 37.7644 23.4369 36.6055 23.3977C35.4467 23.3584 34.2916 23.5488 33.2067 23.9579C32.1217 24.367 31.1285 24.9868 30.2842 25.7815C29.4398 26.5761 28.7611 27.53 28.287 28.5882C27.8129 29.6463 27.5529 30.7878 27.5219 31.9469C27.491 33.106 27.6897 34.2597 28.1065 35.3417C28.5234 36.4236 29.1503 37.4124 29.951 38.251L43.407 52.551C45.0049 54.2484 47.2117 55.2415 49.5418 55.3118C51.872 55.3821 54.1346 54.5239 55.832 52.926C57.5294 51.3281 58.5225 49.1213 58.5928 46.7912C58.6631 44.461 57.8049 42.1984 56.207 40.501L42.751 26.204ZM51.813 48.656C51.5331 48.9198 51.2039 49.1258 50.8443 49.2624C50.4847 49.3989 50.1018 49.4633 49.7173 49.4517C49.3328 49.4402 48.9544 49.3531 48.6036 49.1953C48.2529 49.0374 47.9366 48.8121 47.673 48.532L34.217 34.232C33.702 33.6634 33.4306 32.9154 33.461 32.1489C33.4915 31.3823 33.8214 30.6582 34.3798 30.1322C34.9383 29.6062 35.6808 29.3203 36.4478 29.3357C37.2148 29.3512 37.9452 29.6669 38.482 30.215L51.938 44.515C52.202 44.795 52.4082 45.1244 52.5449 45.4842C52.6815 45.844 52.7458 46.2272 52.7342 46.6119C52.7226 46.9966 52.6353 47.3753 52.4772 47.7262C52.3191 48.0771 52.0934 48.3934 51.813 48.657V48.656Z" fill="#058702"/><path id="Path 56" d="M69.516 37.543L46.078 12.643C45.8041 12.352 45.4736 12.1201 45.1068 11.9615C44.74 11.8029 44.3446 11.7211 43.945 11.721H35.156V2.93C35.156 2.15309 34.8474 1.40798 34.2982 0.858531C33.7489 0.309078 33.0039 0.000265157 32.227 0L14.648 0C13.8709 0 13.1257 0.308696 12.5762 0.858177C12.0267 1.40766 11.718 2.15292 11.718 2.93V13.53L0.740001 25.886C0.263502 26.4223 0.000214475 27.1146 2.93886e-06 27.832V79.493C-0.00176839 81.656 0.797236 83.7431 2.243 85.352C1.1105 86.6157 0.368233 88.1804 0.105899 89.8569C-0.156435 91.5334 0.0723933 93.25 0.764735 94.7993C1.45708 96.3485 2.5833 97.6641 4.00729 98.587C5.43128 99.51 7.09209 100.001 8.789 100H61.523C63.2201 100.001 64.8812 99.5107 66.3055 98.5878C67.7297 97.6649 68.8561 96.3491 69.5483 94.7996C70.2406 93.25 70.4691 91.5331 70.2062 89.8565C69.9433 88.1799 69.2003 86.6153 68.067 85.352C69.5137 83.7436 70.3135 81.6563 70.312 79.493V39.551C70.3121 38.8047 70.0274 38.0865 69.516 37.543V37.543ZM17.578 5.859H29.3V11.718H17.578V5.859ZM61.523 94.14H8.789C8.02143 94.1258 7.29008 93.8109 6.75226 93.2631C6.21445 92.7153 5.91313 91.9782 5.91313 91.2105C5.91313 90.4428 6.21445 89.7057 6.75226 89.1579C7.29008 88.6101 8.02143 88.2952 8.789 88.281C9.55658 88.2668 10.2879 87.9519 10.8257 87.4041C11.3636 86.8563 11.6649 86.1192 11.6649 85.3515C11.6649 84.5838 11.3636 83.8467 10.8257 83.2989C10.2879 82.7511 9.55658 82.4362 8.789 82.422C8.02143 82.4078 7.29008 82.0929 6.75226 81.5451C6.21445 80.9973 5.91313 80.2602 5.91313 79.4925C5.91313 78.7248 6.21445 77.9877 6.75226 77.4399C7.29008 76.8921 8.02143 76.5772 8.789 76.563C9.55658 76.5488 10.2879 76.2339 10.8257 75.6861C11.3636 75.1383 11.6649 74.4012 11.6649 73.6335C11.6649 72.8658 11.3636 72.1287 10.8257 71.5809C10.2879 71.0331 9.55658 70.7182 8.789 70.704C7.79096 70.7023 6.79999 70.8714 5.859 71.204V28.946L15.959 17.578H42.674L64.448 40.713V71.207C63.507 70.8744 62.516 70.7053 61.518 70.707C60.7504 70.7212 60.0191 71.0361 59.4813 71.5839C58.9435 72.1317 58.6421 72.8688 58.6421 73.6365C58.6421 74.4042 58.9435 75.1413 59.4813 75.6891C60.0191 76.2369 60.7504 76.5518 61.518 76.566C61.9073 76.5588 62.2941 76.6293 62.6558 76.7733C63.0175 76.9172 63.3469 77.1319 63.6247 77.4046C63.9026 77.6774 64.1232 78.0027 64.2739 78.3617C64.4245 78.7207 64.5021 79.1062 64.5021 79.4955C64.5021 79.8848 64.4245 80.2702 64.2739 80.6292C64.1232 80.9882 63.9026 81.3136 63.6247 81.5864C63.3469 81.8591 63.0175 82.0738 62.6558 82.2177C62.2941 82.3617 61.9073 82.4322 61.518 82.425C61.1287 82.4178 60.7419 82.4883 60.3802 82.6323C60.0185 82.7762 59.6891 82.9909 59.4113 83.2636C59.1334 83.5364 58.9128 83.8617 58.7621 84.2207C58.6115 84.5797 58.5339 84.9652 58.5339 85.3545C58.5339 85.7438 58.6115 86.1293 58.7621 86.4883C58.9128 86.8473 59.1334 87.1726 59.4113 87.4454C59.6891 87.7181 60.0185 87.9328 60.3802 88.0767C60.7419 88.2207 61.1287 88.2912 61.518 88.284C62.2856 88.2982 63.0169 88.6131 63.5548 89.1609C64.0926 89.7087 64.3939 90.4458 64.3939 91.2135C64.3939 91.9812 64.0926 92.7183 63.5548 93.2661C63.0169 93.8139 62.2856 94.1288 61.518 94.143L61.523 94.14Z" fill="#14A1D5"/><path id="translate" style="transform-origin: center; transform-box: fill-box; animation: translateY 2s linear infinite alternate;" d="M37.567 60.249C37.2975 59.859 36.9373 59.5401 36.5175 59.3199C36.0976 59.0997 35.6306 58.9846 35.1565 58.9846C34.6824 58.9846 34.2154 59.0997 33.7955 59.3199C33.3757 59.5401 33.0155 59.859 32.746 60.249C32.684 60.339 31.198 62.495 29.693 65.09C26.713 70.228 26.368 72.426 26.368 73.633C26.368 75.964 27.294 78.1995 28.9422 79.8478C30.5905 81.496 32.826 82.422 35.157 82.422C37.488 82.422 39.7235 81.496 41.3718 79.8478C43.02 78.1995 43.946 75.964 43.946 73.633C43.946 72.426 43.601 70.228 40.621 65.09C39.114 62.494 37.629 60.339 37.567 60.249ZM35.156 76.562C34.3798 76.5615 33.6354 76.2531 33.0862 75.7046C32.5369 75.1561 32.2276 74.4122 32.226 73.636C32.25 72.736 33.469 70.187 35.156 67.344C36.842 70.184 38.056 72.736 38.085 73.635C38.0834 74.4111 37.7743 75.155 37.2252 75.7037C36.6762 76.2523 35.9321 76.5609 35.156 76.562V76.562Z" fill="#14A1D5"/></g></g><defs><clipPath id="clip0_836_17"><rect width="70.313" height="100" fill="white"/></clipPath></defs><style> @keyframes rotation { 0% { transform: rotate(0deg); } 50% { transform: rotate(10deg); } 100% { transform: rotate(0deg); } } @keyframes translateY { 0%, 100% { transform: translateY(0px); } 50% { transform: translateY(-4px); } }</style></svg>