<svg xmlns="http://www.w3.org/2000/svg" width="45" height="45" viewBox="0 0 45 45">
  <g id="Layer_2" data-name="Layer 2" transform="translate(0.38)">
    <g id="Color_Icon" data-name="Color Icon" transform="translate(-0.38)">
      <g id="_17.Tumblr" data-name="17.Tumblr">
        <rect id="Background" width="45" height="45" rx="22.5" fill="#3d5a70"/>
        <path id="Icon" d="M54,45.656H51.379V42.6a.313.313,0,0,1,.236-.357c3.057-.912,4.514-5.431,4.529-5.948,0-.2.121-.3.319-.3h2.794c.221,0,.274.077.271.3V41.96H65.1v3.694H59.6c0,.074-.056,7.966,0,8.335a1.835,1.835,0,0,0,.947,1.307,3.9,3.9,0,0,0,2.806.389A13.115,13.115,0,0,0,65.9,54.664v3.411a.348.348,0,0,1-.242.366,11.7,11.7,0,0,1-5.871,1.136,6.811,6.811,0,0,1-4.62-1.906A3.4,3.4,0,0,1,54,55.257Z" transform="translate(-36.088 -25.379)" fill="#fff"/>
      </g>
    </g>
  </g>
</svg>
