<svg xmlns="http://www.w3.org/2000/svg" width="44" height="45" viewBox="0 0 44 45">
  <g id="Layer_2" data-name="Layer 2" transform="translate(-0.287)">
    <g id="Color_Icon" data-name="Color Icon" transform="translate(0.287)">
      <g id="_11.Pinterest" data-name="11.Pinterest" transform="translate(0)">
        <rect id="Rectangle_56" data-name="Rectangle 56" width="44" height="45" rx="22" fill="#bd081c"/>
        <path id="Icon" d="M59.61,48.157A11.8,11.8,0,1,0,42.657,58.433a.333.333,0,0,0,.478-.313,8.88,8.88,0,0,1,.148-2.222c.15-.64.735-3.124,1.121-4.756a5.83,5.83,0,0,0,.059-2.422,4.9,4.9,0,0,1-.086-.915c0-1.744,1.012-3.045,2.269-3.045a1.576,1.576,0,0,1,1.587,1.77,25.162,25.162,0,0,1-1.039,4.175,1.82,1.82,0,0,0,1.856,2.266c2.23,0,3.942-2.36,3.942-5.741a4.95,4.95,0,0,0-5.237-5.1,5.428,5.428,0,0,0-5.662,5.443,4.883,4.883,0,0,0,.932,2.859.378.378,0,0,1,.089.36c-.094.4-.3,1.248-.348,1.422-.056.23-.183.277-.419.168-1.567-.735-2.546-3.033-2.546-4.865,0-3.956,2.874-7.588,8.285-7.588,4.349,0,7.73,3.1,7.73,7.243,0,4.319-2.726,7.8-6.491,7.8a3.706,3.706,0,0,1-2.528-.962.31.31,0,0,0-.522.142c-.2.749-.516,1.965-.62,2.36a10.981,10.981,0,0,1-.965,2.26.33.33,0,0,0,.212.481,11.831,11.831,0,0,0,3.018.363A11.986,11.986,0,0,0,59.6,48.163Z" transform="translate(-25.654 -25.39)" fill="#fff"/>
      </g>
    </g>
  </g>
</svg>
