<svg xmlns="http://www.w3.org/2000/svg" width="45" height="45" viewBox="0 0 45 45">
  <g id="Layer_2" data-name="Layer 2" transform="translate(0.426)">
    <g id="Color_Icon" data-name="Color Icon" transform="translate(-0.426)">
      <g id="_04.Twitter" data-name="04.Twitter">
        <rect id="Background" width="45" height="45" rx="22.5" fill="#03a9f4"/>
        <path id="Icon" d="M55.84,38.788a12.392,12.392,0,0,1-3.431.941,5.918,5.918,0,0,0,2.62-3.293,11.9,11.9,0,0,1-3.776,1.443,5.954,5.954,0,0,0-10.3,4.071,6.157,6.157,0,0,0,.139,1.357A16.864,16.864,0,0,1,28.812,37.08a5.96,5.96,0,0,0,1.832,7.966,5.877,5.877,0,0,1-2.691-.735v.065a5.983,5.983,0,0,0,4.771,5.847,5.939,5.939,0,0,1-1.561.195,5.311,5.311,0,0,1-1.13-.1A6.016,6.016,0,0,0,35.6,54.466a11.976,11.976,0,0,1-7.376,2.54,10.754,10.754,0,0,1-1.425-.083A16.755,16.755,0,0,0,35.946,59.6C46.906,59.6,52.9,50.519,52.9,42.65c0-.263,0-.516-.021-.77a11.849,11.849,0,0,0,2.962-3.092Z" transform="translate(-18.564 -25.373)" fill="#fff"/>
      </g>
    </g>
  </g>
</svg>
