<svg id="Layer_x0020_1" xmlns="http://www.w3.org/2000/svg" width="35" height="35" viewBox="0 0 35 35">
  <path id="Path_22" data-name="Path 22" d="M17.5,0A17.5,17.5,0,1,1,0,17.5,17.5,17.5,0,0,1,17.5,0Zm2.467,17.729L16.1,19.848c-.167.091-.319-.031-.319-.221v-4.35c0-.193.156-.315.324-.219L20,17.288A.253.253,0,0,1,19.967,17.729Zm6.113-2.5a3.736,3.736,0,0,0-3.736-3.736H12.655A3.736,3.736,0,0,0,8.92,15.23v4.54a3.736,3.736,0,0,0,3.736,3.736h9.69A3.735,3.735,0,0,0,26.08,19.77Z" fill="#fff" fill-rule="evenodd"/>
</svg>
