<svg xmlns="http://www.w3.org/2000/svg" width="70" height="70" viewBox="0 0 70 70">
  <g id="Group_17" data-name="Group 17" transform="translate(-590 -1108)">
    <g id="glass_twotone" data-name="glass/twotone" transform="translate(590 1108)">
      <g id="vuesax_twotone_glass" data-name="vuesax/twotone/glass">
        <g id="glass">
          <path id="Vector" d="M0,0H11.816" transform="translate(29.092 51.042)" fill="none" stroke="#14a1d5" stroke-linecap="round" stroke-linejoin="round" stroke-width="3" opacity="0.4"/>
          <path id="Vector-2" data-name="Vector" d="M0,44.312V14.771C0,2.954,2.954,0,14.771,0" transform="translate(5.908 7.385)" fill="none" stroke="#14a1d5" stroke-linecap="round" stroke-linejoin="round" stroke-width="3" opacity="0.4"/>
          <path id="Vector-3" data-name="Vector" d="M14.771,44.312V14.771C14.771,2.954,11.816,0,0,0" transform="translate(49.321 7.385)" fill="none" stroke="#14a1d5" stroke-linecap="round" stroke-linejoin="round" stroke-width="3" opacity="0.4"/>
          <path id="Vector-4" data-name="Vector" d="M23.633,8.271V17.99c0,5.908-2.363,8.271-8.271,8.271H8.271C2.363,26.262,0,23.9,0,17.99V8.271C0,2.363,2.363,0,8.271,0h7.09C21.27,0,23.633,2.363,23.633,8.271Z" transform="translate(5.908 37.83)" fill="none" stroke="#14a1d5" stroke-linecap="round" stroke-linejoin="round" stroke-width="3"/>
          <path id="Vector-5" data-name="Vector" d="M23.633,8.271V17.99c0,5.908-2.363,8.271-8.271,8.271H8.271C2.363,26.262,0,23.9,0,17.99V8.271C0,2.363,2.363,0,8.271,0h7.09C21.27,0,23.633,2.363,23.633,8.271Z" transform="translate(40.459 37.83)" fill="none" stroke="#14a1d5" stroke-linecap="round" stroke-linejoin="round" stroke-width="3"/>
          <path id="Vector-6" data-name="Vector" d="M0,0H70V70H0Z" fill="none" opacity="0"/>
        </g>
      </g>
    </g>
  </g>
</svg>
