<svg width="94" height="100" viewBox="0 0 94 100" fill="none" xmlns="http://www.w3.org/2000/svg"><g id="clean-car 1" clip-path="url(#clip0_836_22)"><g id="clean-car"><path id="rotate" style="transform-origin: center; transform-box: fill-box; animation: spin 2s linear infinite;" d="M76.172 26.563C76.1862 27.3306 76.5011 28.0619 77.0489 28.5997C77.5968 29.1376 78.3338 29.4389 79.1015 29.4389C79.8692 29.4389 80.6063 29.1376 81.1541 28.5997C81.702 28.0619 82.0168 27.3306 82.031 26.563C82.0339 24.2329 82.9608 21.9991 84.6085 20.3515C86.2561 18.7038 88.4899 17.7769 90.82 17.774C91.5876 17.7598 92.3189 17.4449 92.8568 16.8971C93.3946 16.3493 93.6959 15.6122 93.6959 14.8445C93.6959 14.0768 93.3946 13.3397 92.8568 12.7919C92.3189 12.2441 91.5876 11.9292 90.82 11.915C88.4732 11.8582 86.2412 10.8874 84.5996 9.20929C82.9579 7.53122 82.0363 5.27853 82.031 2.931C82.0168 2.16342 81.702 1.43207 81.1541 0.894254C80.6063 0.356439 79.8692 0.0551262 79.1015 0.0551262C78.3338 0.0551262 77.5968 0.356439 77.0489 0.894254C76.5011 1.43207 76.1862 2.16342 76.172 2.931C76.1667 5.27853 75.2451 7.53122 73.6034 9.20929C71.9618 10.8874 69.7298 11.8582 67.383 11.915C66.9937 11.9078 66.607 11.9783 66.2452 12.1223C65.8835 12.2662 65.5541 12.4809 65.2763 12.7536C64.9984 13.0264 64.7778 13.3517 64.6271 13.7107C64.4765 14.0697 64.3989 14.4552 64.3989 14.8445C64.3989 15.2338 64.4765 15.6193 64.6271 15.9783C64.7778 16.3373 64.9984 16.6626 65.2763 16.9354C65.5541 17.2081 65.8835 17.4227 66.2452 17.5667C66.607 17.7107 66.9937 17.7812 67.383 17.774C69.7131 17.7769 71.9469 18.7038 73.5945 20.3515C75.2422 21.9991 76.1691 24.2329 76.172 26.563V26.563ZM79.102 11.796C79.9493 12.9366 80.9521 13.9531 82.081 14.816C80.9514 15.6581 79.9482 16.6575 79.102 17.784C78.256 16.6574 77.2528 15.6579 76.123 14.816C77.2513 13.9543 78.2537 12.9391 79.101 11.8L79.102 11.796Z" fill="#058702"/><path id="Path 59" d="M0 67.573V79.487C0.00165315 81.304 0.565734 83.076 1.61479 84.5596C2.66385 86.0432 4.14644 87.1657 5.859 87.773V91.206C5.859 93.537 6.78498 95.7725 8.43324 97.4208C10.0815 99.069 12.317 99.995 14.648 99.995C16.979 99.995 19.2145 99.069 20.8628 97.4208C22.511 95.7725 23.437 93.537 23.437 91.206V88.276H64.453V91.206C64.453 93.537 65.379 95.7725 67.0272 97.4208C68.6755 99.069 70.911 99.995 73.242 99.995C75.573 99.995 77.8085 99.069 79.4568 97.4208C81.105 95.7725 82.031 93.537 82.031 91.206V87.773C83.7436 87.1657 85.2262 86.0432 86.2752 84.5596C87.3243 83.076 87.8883 81.304 87.89 79.487V67.573C87.8854 64.094 86.6445 60.73 84.3889 58.0813C82.1333 55.4326 79.0098 53.6717 75.576 53.113L71.334 36.144C70.8606 34.2413 69.7637 32.552 68.2182 31.3454C66.6727 30.1389 64.7677 29.4846 62.807 29.487H32.226C29.8959 29.4841 27.6621 28.5572 26.0145 26.9095C24.3668 25.2619 23.4399 23.0281 23.437 20.698C23.4228 19.9304 23.1079 19.1991 22.5601 18.6613C22.0123 18.1234 21.2752 17.8221 20.5075 17.8221C19.7398 17.8221 19.0027 18.1234 18.4549 18.6613C17.9071 19.1991 17.5922 19.9304 17.578 20.698C17.5751 23.0281 16.6482 25.2619 15.0005 26.9095C13.3529 28.5572 11.1191 29.4841 8.789 29.487C8.02142 29.5012 7.29007 29.8161 6.75225 30.3639C6.21444 30.9117 5.91313 31.6488 5.91313 32.4165C5.91313 33.1842 6.21444 33.9213 6.75225 34.4691C7.29007 35.0169 8.02142 35.3318 8.789 35.346C10.1657 35.3462 11.523 35.67 12.7514 36.2914C13.9799 36.9127 15.0451 37.8142 15.861 38.923L12.313 53.112C8.87921 53.671 5.75582 55.4321 3.5004 58.0809C1.24499 60.7298 0.0043675 64.094 0 67.573H0ZM17.578 91.206C17.5638 91.9736 17.2489 92.7049 16.7011 93.2427C16.1533 93.7806 15.4162 94.0819 14.6485 94.0819C13.8808 94.0819 13.1437 93.7806 12.5959 93.2427C12.0481 92.7049 11.7332 91.9736 11.719 91.206V88.276H17.578V91.206ZM73.242 94.136C72.4652 94.1352 71.7204 93.8263 71.1711 93.277C70.6217 92.7276 70.3128 91.9828 70.312 91.206V88.276H76.171V91.206C76.1713 91.9834 75.8629 92.729 75.3137 93.2792C74.7645 93.8293 74.0194 94.1389 73.242 94.14V94.136ZM82.031 67.573V79.487C82.0302 80.2638 81.7213 81.0086 81.1719 81.5579C80.6226 82.1073 79.8778 82.4162 79.101 82.417H8.789C8.01216 82.4162 7.26736 82.1073 6.71805 81.5579C6.16874 81.0086 5.85979 80.2638 5.859 79.487V67.573C5.8619 65.2448 6.78731 63.0126 8.43256 61.3653C10.0778 59.718 12.3088 58.7898 14.637 58.784H73.253C75.5812 58.7898 77.8122 59.718 79.4574 61.3653C81.1027 63.0126 82.0281 65.2448 82.031 67.573V67.573ZM47.663 52.929C48.1766 52.0382 48.9157 51.2985 49.806 50.7841C50.6962 50.2697 51.7063 49.9989 52.7345 49.9989C53.7627 49.9989 54.7728 50.2697 55.663 50.7841C56.5533 51.2985 57.2924 52.0382 57.806 52.929H47.663ZM32.226 35.351H62.808C63.4619 35.3504 64.0972 35.5689 64.6123 35.9717C65.1275 36.3745 65.4928 36.9382 65.65 37.573L69.49 52.932H64.082C63.4339 50.4143 61.9671 48.1836 59.9124 46.5908C57.8577 44.998 55.3318 44.1336 52.732 44.1336C50.1322 44.1336 47.6063 44.998 45.5516 46.5908C43.4969 48.1836 42.0301 50.4143 41.382 52.932H18.4L19.882 47.004C20.3097 47.0983 20.7532 47.0954 21.1796 46.9954C21.6061 46.8955 22.0046 46.701 22.3459 46.4264C22.6871 46.1517 22.9623 45.804 23.1512 45.4088C23.34 45.0136 23.4377 44.581 23.437 44.143C23.4399 41.8129 24.3668 39.5791 26.0145 37.9315C27.6621 36.2838 29.8959 35.3569 32.226 35.354V35.351ZM20.508 29.483C21.3441 30.5964 22.3336 31.5859 23.447 32.422C22.3336 33.2581 21.3441 34.2476 20.508 35.361C19.6719 34.2476 18.6824 33.2581 17.569 32.422C18.6823 31.5857 19.6717 30.5963 20.508 29.483V29.483Z" fill="#14A1D5"/><path id="rotate_1" style="transform-origin: center; transform-box: fill-box; animation: rotation 2s linear infinite alternate;" d="M71.932 64.957L60.213 70.816C59.866 70.9864 59.5561 71.2237 59.3012 71.5144C59.0463 71.805 58.8514 72.1433 58.7278 72.5096C58.6043 72.8759 58.5544 73.263 58.5811 73.6487C58.6078 74.0344 58.7106 74.411 58.8835 74.7567C59.0565 75.1025 59.2961 75.4106 59.5886 75.6634C59.8812 75.9161 60.2208 76.1085 60.5881 76.2293C60.9553 76.3502 61.3428 76.3972 61.7283 76.3676C62.1137 76.3381 62.4895 76.2325 62.834 76.057L74.553 70.198C74.9 70.0277 75.2099 69.7903 75.4648 69.4996C75.7197 69.209 75.9146 68.8707 76.0381 68.5044C76.1617 68.1381 76.2116 67.751 76.1849 67.3653C76.1581 66.9796 76.0554 66.603 75.8824 66.2573C75.7095 65.9115 75.4699 65.6034 75.1774 65.3507C74.8848 65.0979 74.5451 64.9056 74.1779 64.7847C73.8107 64.6638 73.4232 64.6168 73.0377 64.6464C72.6523 64.676 72.2765 64.7815 71.932 64.957V64.957Z" fill="#14A1D5"/><path id="rotate_2" style="transform-origin: center; transform-box: fill-box; animation: rotationReverse 2s linear infinite alternate;" d="M27.677 70.816L15.958 64.957C15.6135 64.7815 15.2377 64.676 14.8523 64.6464C14.4668 64.6168 14.0793 64.6638 13.7121 64.7847C13.3449 64.9056 13.0052 65.0979 12.7126 65.3507C12.4201 65.6034 12.1805 65.9115 12.0075 66.2573C11.8346 66.603 11.7318 66.9796 11.7051 67.3653C11.6784 67.751 11.7283 68.1381 11.8519 68.5044C11.9754 68.8707 12.1703 69.209 12.4252 69.4996C12.6801 69.7903 12.99 70.0277 13.337 70.198L25.056 76.057C25.7502 76.3978 26.551 76.4503 27.2837 76.2031C28.0165 75.9559 28.6218 75.429 28.9677 74.7373C29.3136 74.0457 29.372 73.2453 29.1302 72.5108C28.8885 71.7762 28.3661 71.167 27.677 70.816V70.816Z" fill="#14A1D5"/><path id="Vector" d="M49.804 70.508H38.086C37.3184 70.5222 36.5871 70.837 36.0492 71.3849C35.5114 71.9327 35.2101 72.6698 35.2101 73.4375C35.2101 74.2052 35.5114 74.9422 36.0492 75.4901C36.5871 76.0379 37.3184 76.3528 38.086 76.367H49.805C50.5726 76.3528 51.3039 76.0379 51.8417 75.4901C52.3796 74.9422 52.6809 74.2052 52.6809 73.4375C52.6809 72.6698 52.3796 71.9327 51.8417 71.3849C51.3039 70.837 50.5726 70.5222 49.805 70.508H49.804Z" fill="#14A1D5"/></g></g><defs><clipPath id="clip0_836_22"><rect width="93.75" height="100" fill="white"/></clipPath></defs><style> @keyframes rotation { 0% { transform: rotate(0deg); } 50% { transform: rotate(10deg); } 100% { transform: rotate(0deg); } } @keyframes spin { 0% { transform: rotate(0deg); } 100% { transform: rotate(360deg); } } @keyframes rotationReverse { 0% { transform: rotate(0deg); } 50% { transform: rotate(-10deg); } 100% { transform: rotate(0deg); } }</style></svg>