<svg xmlns="http://www.w3.org/2000/svg" width="45" height="45" viewBox="0 0 45 45">
  <g id="Layer_2" data-name="Layer 2" transform="translate(0.045)">
    <g id="Color_Icon" data-name="Color Icon" transform="translate(-0.045)">
      <g id="_07.Linkedin" data-name="07.Linkedin" transform="translate(0)">
        <rect id="Rectangle_57" data-name="Rectangle 57" width="45" height="45" rx="22.5" fill="#4875b4"/>
        <g id="Icon" transform="translate(10.794 10.621)">
          <path id="Path_35" data-name="Path 35" d="M79.553,77.4V68.747c0-4.237-.912-7.5-5.862-7.5a5.136,5.136,0,0,0-4.629,2.543h-.068V61.645H64.3V77.4h4.886V69.6c0-2.065.389-4.042,2.95-4.042s2.543,2.36,2.543,4.175V77.4Z" transform="translate(-55.924 -53.8)" fill="#fff"/>
          <path id="Path_36" data-name="Path 36" d="M37.32,62.59h4.892V78.348H37.32Z" transform="translate(-36.904 -54.745)" fill="#fff"/>
          <path id="Path_37" data-name="Path 37" d="M38.769,36a2.832,2.832,0,1,0,2,.829A2.847,2.847,0,0,0,38.769,36Z" transform="translate(-35.91 -36)" fill="#fff"/>
        </g>
      </g>
    </g>
  </g>
</svg>
