<svg xmlns="http://www.w3.org/2000/svg" width="24" height="24" viewBox="0 0 24 24">
  <g id="Group_1317" data-name="Group 1317" transform="translate(-111 -923)">
    <rect id="Rectangle_31" data-name="Rectangle 31" width="24" height="24" transform="translate(111 923)" fill="none"/>
    <path id="Share" d="M23.714,19.429a4.279,4.279,0,0,0-3.453,1.758l-3.878-1.933a4.273,4.273,0,0,0,0-2.506l3.878-1.933a4.238,4.238,0,1,0-.645-1.275l-3.878,1.933a4.286,4.286,0,1,0,0,5.056l3.878,1.933a4.285,4.285,0,1,0,4.1-3.033Zm0-10a2.857,2.857,0,1,1-2.857,2.857A2.86,2.86,0,0,1,23.714,9.429ZM12.286,20.857A2.857,2.857,0,1,1,15.143,18,2.86,2.86,0,0,1,12.286,20.857Zm11.429,5.714a2.857,2.857,0,1,1,2.857-2.857A2.86,2.86,0,0,1,23.714,26.571Z" transform="translate(105 917)" fill="#fff"/>
  </g>
</svg>
