<svg id="Layer_2" data-name="Layer 2" xmlns="http://www.w3.org/2000/svg" width="45" height="45" viewBox="0 0 45 45">
  <g id="Color_Icon" data-name="Color Icon">
    <g id="_22.VK" data-name="22.VK">
      <g id="Background">
        <rect id="Rectangle_53" data-name="Rectangle 53" width="45" height="45" rx="22.5" fill="#4c75a3"/>
      </g>
      <path id="Path_39" data-name="Path 39" d="M41.127,64.5h1.735a1.48,1.48,0,0,0,.793-.346,1.285,1.285,0,0,0,.225-.77s-.036-2.33,1.048-2.664,2.434,2.25,3.887,3.257a2.756,2.756,0,0,0,1.93.592l3.881-.053s2.031-.127,1.069-1.723a12.989,12.989,0,0,0-2.887-3.339c-2.434-2.259-2.108-1.892.823-5.8,1.776-2.368,2.5-3.831,2.277-4.441s-1.525-.438-1.525-.438l-4.37.03a1,1,0,0,0-.565.1,1.238,1.238,0,0,0-.385.471,25.374,25.374,0,0,1-1.614,3.4c-1.948,3.3-2.724,3.479-3.043,3.274-.74-.477-.554-1.921-.554-2.961,0-3.2.486-4.536-.947-4.882a7.384,7.384,0,0,0-2.04-.219,9.586,9.586,0,0,0-3.624.373c-.5.243-.888.785-.648.817a1.957,1.957,0,0,1,1.291.648,4.223,4.223,0,0,1,.432,1.978s.255,3.769-.592,4.237c-.592.32-1.4-.335-3.132-3.334a27.853,27.853,0,0,1-1.569-3.239,1.3,1.3,0,0,0-.361-.486,1.282,1.282,0,0,0-.222-.13,1.673,1.673,0,0,0-.711-.139l-3.89.027s-.625,0-.853.3a.8.8,0,0,0-.018.74s3.257,7.606,6.934,11.439A10.009,10.009,0,0,0,41.127,64.5Z" transform="translate(-18.923 -33.78)" fill="#fff" fill-rule="evenodd"/>
    </g>
  </g>
</svg>
