<svg xmlns="http://www.w3.org/2000/svg" width="45" height="45" viewBox="0 0 45 45">
  <g id="Layer_2" data-name="Layer 2" transform="translate(-0.242)">
    <g id="Color_Icon" data-name="Color Icon" transform="translate(0.242)">
      <g id="_32.Quora" data-name="32.Quora">
        <rect id="Rectangle_52" data-name="Rectangle 52" width="45" height="45" rx="22.5" fill="#b0271e"/>
        <path id="Icon" d="M58.529,54.522s-.115,1.693-1.655,1.693c-1.18,0-2-.909-2.762-2.086a10.391,10.391,0,0,0,3.54-7.848,9.981,9.981,0,1,0-9.981,10.279,9.639,9.639,0,0,0,2.874-.434c1.154,1.829,2.614,3.475,4.9,3.475,4.659,0,4.85-5.08,4.85-5.08Zm-10.857.36c-3.213,0-5.815-3.835-5.815-8.585s2.6-8.6,5.815-8.6,5.812,3.835,5.812,8.588a11.474,11.474,0,0,1-1.109,5.06,5.3,5.3,0,0,0-3.086-2.39,6.447,6.447,0,0,0-5.122,1.08l.617,1.269a3.247,3.247,0,0,1,2.166,0c.974.227,1.732,1.575,2.6,3.124a4.113,4.113,0,0,1-1.873.457Z" transform="translate(-26.646 -25.379)" fill="#fff"/>
      </g>
    </g>
  </g>
</svg>
