<svg id="Layer_2" data-name="Layer 2" xmlns="http://www.w3.org/2000/svg" width="35" height="35" viewBox="0 0 35 35">
  <g id="_16.telegram" data-name="16.telegram">
    <g id="icon">
      <path id="Path_23" data-name="Path 23" d="M77.011,60.772l-8.875,7.255-.418.342a.451.451,0,0,0-.167.294l-.093.772L67.2,71.6a.1.1,0,1,1-.2.018l-.722-2.168-.746-2.217a.445.445,0,0,1,.215-.529l9.235-5.294,1.738-.994c.253-.147.511.171.288.354Z" transform="translate(-52.485 -48.373)" fill="#fff"/>
      <path id="Path_24" data-name="Path 24" d="M17.5,0A17.5,17.5,0,1,0,35,17.5,17.5,17.5,0,0,0,17.5,0ZM28.416,10.13,25,25.226a1.1,1.1,0,0,1-1.69.6l-5.159-3.5-2.627,2.484a.9.9,0,0,1-1.456-.322L13.119,21.7l-.949-2.784L7.086,17.524a.66.66,0,0,1-.058-1.275L26.672,9.172l.362-.129a1.011,1.011,0,0,1,1.382,1.088Z" fill="#fff"/>
    </g>
  </g>
</svg>
