<svg id="Layer_x0020_1" xmlns="http://www.w3.org/2000/svg" width="35" height="35" viewBox="0 0 35 35">
  <path id="Path_19" data-name="Path 19" d="M17.5,0A17.5,17.5,0,1,1,0,17.5,17.5,17.5,0,0,1,17.5,0Zm8.414,12.108A6.967,6.967,0,0,1,24.2,12.6c.512-.086,1.269-1.308,1.416-1.787.044-.088-.019-.118-.094-.081a8.735,8.735,0,0,1-2.034.779c-.134.033-.214-.133-.318-.219a3.568,3.568,0,0,0-5.815,3.348c.011.082,0,.093-.07.082a10.866,10.866,0,0,1-6.99-3.559c-.082-.093-.126-.093-.193.008a3.556,3.556,0,0,0,1.034,4.566,3.573,3.573,0,0,1-1.349-.378c-.082-.052-.123-.022-.13.07a3.576,3.576,0,0,0,2.68,3.4,4,4,0,0,1-1.323.041c-.1-.018-.133.029-.1.122a3.721,3.721,0,0,0,2.78,2.328c.126.022.252.022.379.052-.688,1.022-3.661,1.51-4.8,1.4-.079-.012-.377-.053-.185.1,6.792,4.478,15.252-.314,15.252-8.833,0-.11.13-.17.207-.228.353-.266,1.433-1.24,1.433-1.7,0-.045.005-.031-.064,0Z" fill="#fff" fill-rule="evenodd"/>
</svg>
