<svg xmlns="http://www.w3.org/2000/svg" width="30" height="30" viewBox="0 0 30 30">
  <g id="Group_17" data-name="Group 17" transform="translate(-590 -1108)">
    <g id="glass_twotone" data-name="glass/twotone" transform="translate(590 1108)">
      <g id="vuesax_twotone_glass" data-name="vuesax/twotone/glass">
        <g id="glass">
          <path id="Vector" d="M0,0H5" transform="translate(12.5 21.875)" fill="none" stroke="#fff" stroke-linecap="round" stroke-linejoin="round" stroke-width="2" opacity="0.4"/>
          <path id="Vector-2" data-name="Vector" d="M0,18.75V6.25C0,1.25,1.25,0,6.25,0" transform="translate(2.5 3.125)" fill="none" stroke="#fff" stroke-linecap="round" stroke-linejoin="round" stroke-width="2" opacity="0.4"/>
          <path id="Vector-3" data-name="Vector" d="M6.25,18.75V6.25C6.25,1.25,5,0,0,0" transform="translate(21.25 3.125)" fill="none" stroke="#fff" stroke-linecap="round" stroke-linejoin="round" stroke-width="2" opacity="0.4"/>
          <path id="Vector-4" data-name="Vector" d="M10,3.5V7.613c0,2.5-1,3.5-3.5,3.5h-3c-2.5,0-3.5-1-3.5-3.5V3.5C0,1,1,0,3.5,0h3C9,0,10,1,10,3.5Z" transform="translate(2.5 16.387)" fill="none" stroke="#fff" stroke-linecap="round" stroke-linejoin="round" stroke-width="2"/>
          <path id="Vector-5" data-name="Vector" d="M10,3.5V7.613c0,2.5-1,3.5-3.5,3.5h-3c-2.5,0-3.5-1-3.5-3.5V3.5C0,1,1,0,3.5,0h3C9,0,10,1,10,3.5Z" transform="translate(17.5 16.387)" fill="none" stroke="#fff" stroke-linecap="round" stroke-linejoin="round" stroke-width="2"/>
          <path id="Vector-6" data-name="Vector" d="M0,0H30V30H0Z" fill="none" opacity="0"/>
        </g>
      </g>
    </g>
  </g>
</svg>
